#!OML:ASF F:\VICON\USERDATA\INSTALL\rory3\rory3.ASF
:FULLY-SPECIFIED
:DEGREES
603
root 0.0253694 17.7852 1.15333 8.62808 19.0981 -1.36448
lowerback 13.9839 -0.750575 2.05015
upperback -2.22759 -0.602186 0.364246
thorax -10.3144 -0.395957 -0.630089
lowerneck -23.6197 -15.9765 -12.7621
upperneck 1.24631 -19.2594 16.476
head 6.9343 -8.29387 4.53375
rclavicle 9.59874e-015 1.88954e-014
rhumerus 62.9479 -54.0238 -61.1445
rradius 37.8271
rwrist 1.58985
rhand -60.1031 -27.3468
rfingers 7.12502
rthumb -32.25 -54.5023
lclavicle 9.59874e-015 1.88954e-014
lhumerus -45.8466 7.0617 67.1703
lradius 45.1371
lwrist 1.02648
lhand -15.1407 21.0167
lfingers 7.12502
lthumb 11.0291 50.7069
rfemur -18.4994 -15.1584 20.7092
rtibia 33.1758
rfoot -22.0104 -8.32347
rtoes 5.41411
lfemur -17.9895 -8.74662 -5.9819
ltibia 21.2012
lfoot -10.4088 0.654005
ltoes -25.0335
604
root 0.0235071 17.7844 1.15381 8.4817 18.9917 -1.46007
lowerback 13.998 -0.725546 1.99235
upperback -2.22491 -0.569152 0.457562
thorax -10.317 -0.373394 -0.503794
lowerneck -23.5316 -15.9371 -12.7302
upperneck 1.42814 -19.2302 16.3109
head 6.95227 -8.29149 4.48379
rclavicle 3.04187e-014 1.13432e-014
rhumerus 62.5165 -54.1394 -61.8105
rradius 37.6824
rwrist 1.19618
rhand -59.6832 -28.8054
rfingers 7.12502
rthumb -31.8502 -56.0413
lclavicle 3.04187e-014 1.13432e-014
lhumerus -45.8232 6.97629 67.1102
lradius 44.9478
lwrist 1.0712
lhand -15.2209 20.3497
lfingers 7.12502
lthumb 10.9517 50.044
rfemur -18.4146 -15.1201 20.7608
rtibia 33.2702
rfoot -22.0646 -8.15083
rtoes 6.5916
lfemur -17.9017 -8.72702 -5.90978
ltibia 21.3395
lfoot -10.4544 0.750732
ltoes -24.9401
605
root 0.021596 17.7863 1.15437 8.33666 18.8619 -1.41215
lowerback 13.6438 -0.710633 1.76846
upperback -1.90868 -0.594936 0.52022
thorax -9.75832 -0.365695 -0.310567
lowerneck -23.4848 -15.8914 -12.7347
upperneck 1.19048 -19.1617 16.4651
head 6.88043 -8.2593 4.55308
rclavicle -3.21596e-014 -9.24349e-015
rhumerus 63.2431 -54.2603 -63.5256
rradius 37.4691
rwrist 0.579116
rhand -60.0412 -29.4561
rfingers 7.12502
rthumb -32.1911 -56.6236
lclavicle -3.21596e-014 -9.24349e-015
lhumerus -45.3147 7.16349 67.0893
lradius 44.8929
lwrist 0.896181
lhand -15.1022 21.1066
lfingers 7.12502
lthumb 11.0662 50.7948
rfemur -18.2583 -14.9963 20.6346
rtibia 33.3519
rfoot -22.1689 -7.93387
rtoes 8.00473
lfemur -17.7758 -8.77706 -5.99203
ltibia 21.5047
lfoot -10.4879 0.885063
ltoes -24.7994
606
root 0.0215253 17.7809 1.15938 8.11445 18.7106 -1.46565
lowerback 13.3901 -0.68666 1.6117
upperback -1.69056 -0.590734 0.59625
thorax -9.36896 -0.349925 -0.146125
lowerneck -23.326 -15.8394 -12.6398
upperneck 1.04042 -19.1163 16.4535
head 6.79305 -8.25287 4.55589
rclavicle 4.9075e-015 -9.34288e-015
rhumerus 63.6935 -54.2585 -64.967
rradius 37.2894
rwrist 0.337332
rhand -60.053 -30.439
rfingers 7.12502
rthumb -32.2023 -57.6041
lclavicle 4.9075e-015 -9.34288e-015
lhumerus -44.982 7.3925 66.9645
lradius 44.8047
lwrist 0.697672
lhand -14.9925 21.7881
lfingers 7.12502
lthumb 11.1719 51.4706
rfemur -18.0298 -14.9134 20.6282
rtibia 33.4181
rfoot -22.2423 -7.78393
rtoes 8.39668
lfemur -17.5617 -8.81351 -5.97831
ltibia 21.6427
lfoot -10.5345 1.03674
ltoes -24.9085
607
root 0.0237275 17.7732 1.16492 7.91043 18.5813 -1.56243
lowerback 13.2351 -0.672332 1.564
upperback -1.60899 -0.580518 0.63393
thorax -9.18908 -0.340349 -0.08351
lowerneck -23.2673 -15.8019 -12.542
upperneck 1.21441 -19.1096 16.3304
head 6.81565 -8.25608 4.50431
rclavicle 2.76683e-014 -8.82107e-015
rhumerus 63.4523 -54.0804 -65.7666
rradius 37.1969
rwrist -0.16177
rhand -60.5545 -30.8988
rfingers 7.12502
rthumb -32.6796 -57.9661
lclavicle 2.76683e-014 -8.82107e-015
lhumerus -44.922 7.449 66.7546
lradius 44.7614
lwrist 0.723062
lhand -14.9623 22.1771
lfingers 7.12502
lthumb 11.2011 51.8581
rfemur -17.8114 -14.8444 20.6677
rtibia 33.4731
rfoot -22.3438 -7.60366
rtoes 8.96064
lfemur -17.3754 -8.78606 -5.9354
ltibia 21.7832
lfoot -10.5843 1.15879
ltoes -25.2792
608
root 0.0272684 17.7728 1.1672 7.81307 18.4769 -1.56226
lowerback 13.0683 -0.66283 1.51071
upperback -1.56219 -0.581933 0.62176
thorax -9.04125 -0.338003 -0.0685106
lowerneck -23.3113 -15.7977 -12.5924
upperneck 1.53695 -19.1341 16.3456
head 6.93756 -8.25402 4.50131
rclavicle -1.24551e-015 -1.35422e-015
rhumerus 62.8454 -53.826 -66.1026
rradius 37.1507
rwrist -0.804276
rhand -61.1799 -31.2614
rfingers 7.12502
rthumb -33.2744 -58.2033
lclavicle -1.24551e-015 -1.35422e-015
lhumerus -44.8099 7.39091 66.6002
lradius 44.7147
lwrist 0.944711
lhand -15.0429 22.5546
lfingers 7.12502
lthumb 11.1234 52.2398
rfemur -17.7213 -14.7897 20.6166
rtibia 33.4979
rfoot -22.3525 -7.62622
rtoes 8.59474
lfemur -17.3218 -8.69872 -6.01044
ltibia 21.9846
lfoot -10.6323 1.24447
ltoes -25.7443
609
root 0.0312483 17.7733 1.17004 7.65986 18.3481 -1.5663
lowerback 12.9636 -0.645724 1.4292
upperback -1.52066 -0.574424 0.628227
thorax -8.9345 -0.32962 -0.0186894
lowerneck -23.1637 -15.774 -12.7275
upperneck 1.73261 -19.1267 16.4437
head 7.00506 -8.2463 4.55322
rclavicle 7.24943e-015 -1.07468e-014
rhumerus 62.1395 -53.4543 -66.3591
rradius 37.2907
rwrist -1.23118
rhand -61.0534 -32.1068
rfingers 7.12502
rthumb -33.1541 -59.0744
lclavicle 7.24943e-015 -1.07468e-014
lhumerus -44.6878 7.54473 66.3731
lradius 44.5776
lwrist 1.18385
lhand -14.9164 22.7941
lfingers 7.12502
lthumb 11.2454 52.4726
rfemur -17.5665 -14.6353 20.5517
rtibia 33.4807
rfoot -22.351 -7.7756
rtoes 7.89669
lfemur -17.2034 -8.70653 -6.06288
ltibia 22.1913
lfoot -10.6862 1.37129
ltoes -25.6846
610
root 0.035778 17.7707 1.17492 7.37425 18.2102 -1.66687
lowerback 12.9108 -0.605734 1.4062
upperback -1.48664 -0.523689 0.657521
thorax -8.86589 -0.302842 0.0143475
lowerneck -22.7319 -15.7242 -12.8384
upperneck 1.73131 -19.0949 16.5132
head 6.95736 -8.25136 4.61501
rclavicle 2.26055e-014 9.23106e-015
rhumerus 60.7312 -52.9377 -65.8352
rradius 37.6371
rwrist -2.03901
rhand -61.061 -32.8419
rfingers 7.12502
rthumb -33.1614 -59.8079
lclavicle 2.26055e-014 9.23106e-015
lhumerus -44.6751 7.6514 66.1423
lradius 44.4831
lwrist 1.33383
lhand -15.2196 23.5733
lfingers 7.12502
lthumb 10.953 53.2676
rfemur -17.2444 -14.4912 20.5589
rtibia 33.4208
rfoot -22.3428 -7.77685
rtoes 7.96827
lfemur -16.935 -8.68807 -6.02582
ltibia 22.3921
lfoot -10.778 1.44425
ltoes -25.2885
611
root 0.0431714 17.7717 1.18315 7.14837 18.0337 -1.79266
lowerback 12.7802 -0.554628 1.4334
upperback -1.5428 -0.452963 0.662456
thorax -8.8512 -0.270208 -0.0108933
lowerneck -22.1144 -15.6435 -12.8715
upperneck 1.68357 -19.0482 16.4975
head 6.84675 -8.26667 4.65238
rclavicle 7.51748e-014 1.49112e-014
rhumerus 59.0126 -52.219 -64.8253
rradius 37.9247
rwrist -3.24224
rhand -61.6326 -33.4423
rfingers 7.12502
rthumb -33.7047 -60.2911
lclavicle 7.51748e-014 1.49112e-014
lhumerus -44.808 7.55333 65.9213
lradius 44.4304
lwrist 1.4553
lhand -15.6196 24.1637
lfingers 7.12502
lthumb 10.5672 53.878
rfemur -17.0154 -14.4336 20.6306
rtibia 33.3147
rfoot -22.1555 -7.99484
rtoes 6.51704
lfemur -16.7186 -8.59435 -5.98251
ltibia 22.6184
lfoot -10.9026 1.51105
ltoes -24.9837
612
root 0.0519541 17.7711 1.19251 6.95544 17.8212 -1.89872
lowerback 12.6144 -0.505665 1.43477
upperback -1.57265 -0.388687 0.685112
thorax -8.7872 -0.238595 -0.00165603
lowerneck -22.0436 -15.6352 -12.8462
upperneck 2.0952 -19.0766 16.2434
head 6.93815 -8.28895 4.55886
rclavicle -6.51913e-015 -1.10108e-014
rhumerus 57.9927 -51.3481 -64.1581
rradius 37.8522
rwrist -4.42566
rhand -62.2648 -33.3829
rfingers 7.12502
rthumb -34.3051 -60.0984
lclavicle -6.51913e-015 -1.10108e-014
lhumerus -44.8082 7.55631 65.7351
lradius 44.274
lwrist 1.62246
lhand -15.2411 22.9567
lfingers 7.12502
lthumb 10.9322 52.6521
rfemur -16.8335 -14.4051 20.7273
rtibia 33.1792
rfoot -21.7606 -8.4943
rtoes 3.1229
lfemur -16.5325 -8.49101 -5.96496
ltibia 22.847
lfoot -10.9914 1.64343
ltoes -25.1142
613
root 0.0579611 17.7674 1.19901 6.70399 17.683 -1.97532
lowerback 12.5242 -0.461482 1.42009
upperback -1.51445 -0.333395 0.700075
thorax -8.6712 -0.210121 0.0103418
lowerneck -22.3611 -15.7314 -12.9129
upperneck 2.7377 -19.2165 16.0762
head 7.19711 -8.32988 4.45969
rclavicle -1.31213e-014 -8.75895e-016
rhumerus 57.0497 -50.491 -63.4101
rradius 37.8921
rwrist -5.15708
rhand -62.5831 -33.362
rfingers 7.12502
rthumb -34.6074 -60.0089
lclavicle -1.31213e-014 -8.75895e-016
lhumerus -44.6086 7.64549 65.5384
lradius 44.0427
lwrist 1.79195
lhand -15.8413 25.1962
lfingers 7.12502
lthumb 10.3532 54.9214
rfemur -16.532 -14.2885 20.7603
rtibia 33.0589
rfoot -21.5842 -8.73384
rtoes 1.75636
lfemur -16.2967 -8.41812 -5.96362
ltibia 23.0161
lfoot -11.0562 1.71376
ltoes -25.2177
614
root 0.0661257 17.7674 1.20586 6.49185 17.604 -2.02478
lowerback 12.3772 -0.41225 1.4517
upperback -1.46939 -0.270601 0.653353
thorax -8.53748 -0.181909 -0.0711236
lowerneck -22.1509 -15.7445 -12.8488
upperneck 2.81561 -19.2903 16.0692
head 7.19492 -8.3735 4.44195
rclavicle -1.11661e-014 7.62836e-015
rhumerus 55.5702 -49.6227 -62.2903
rradius 38.4439
rwrist -5.27389
rhand -63.212 -33.3343
rfingers 7.12502
rthumb -35.204 -59.8425
lclavicle -1.11661e-014 7.62836e-015
lhumerus -44.354 7.71063 65.2829
lradius 43.773
lwrist 1.84754
lhand -15.9937 25.5956
lfingers 7.12502
lthumb 10.2062 55.328
rfemur -16.2125 -14.1316 20.7154
rtibia 32.9584
rfoot -21.6385 -8.75929
rtoes 2.29486
lfemur -16.0615 -8.33739 -5.99433
ltibia 23.1319
lfoot -11.1081 1.69173
ltoes -25.3573
615
root 0.0766385 17.7696 1.21349 6.34486 17.5104 -1.9497
lowerback 12.2255 -0.36287 1.34919
upperback -1.48341 -0.229237 0.584607
thorax -8.46454 -0.158723 -0.0953804
lowerneck -21.8015 -15.6463 -12.537
upperneck 3.00173 -19.2549 15.6793
head 7.11991 -8.39593 4.29824
rclavicle -2.64011e-014 8.77137e-015
rhumerus 54.171 -48.5599 -61.0752
rradius 38.9929
rwrist -5.04862
rhand -63.6913 -33.1842
rfingers 7.12502
rthumb -35.6584 -59.5839
lclavicle -2.64011e-014 8.77137e-015
lhumerus -44.2473 7.73103 65.0754
lradius 43.6074
lwrist 1.77084
lhand -15.9866 25.6931
lfingers 7.12502
lthumb 10.213 55.4252
rfemur -15.915 -13.9202 20.5317
rtibia 32.8575
rfoot -21.6921 -8.84841
rtoes 2.45427
lfemur -15.8385 -8.32089 -6.16685
ltibia 23.2227
lfoot -11.1205 1.76084
ltoes -25.5995
616
root 0.0893471 17.7732 1.22135 6.1808 17.3579 -1.87803
lowerback 12.1038 -0.295609 1.25419
upperback -1.51547 -0.159302 0.544345
thorax -8.42807 -0.121499 -0.0985235
lowerneck -22.8879 -15.8232 -12.0772
upperneck 4.49162 -19.5328 14.6339
head 7.62725 -8.4959 3.77201
rclavicle -5.84738e-014 5.31749e-015
rhumerus 53.2606 -47.3982 -60.1095
rradius 39.4882
rwrist -4.53294
rhand -63.7023 -33.3025
rfingers 7.12502
rthumb -35.6689 -59.6997
lclavicle -5.84738e-014 5.31749e-015
lhumerus -44.1819 7.71169 64.934
lradius 43.3887
lwrist 1.73494
lhand -16.0408 26.0352
lfingers 7.12502
lthumb 10.1608 55.7698
rfemur -15.6 -13.6688 20.3495
rtibia 32.7336
rfoot -21.7145 -8.94596
rtoes 2.3123
lfemur -15.5889 -8.26441 -6.3503
ltibia 23.3211
lfoot -11.1526 1.84234
ltoes -25.5545
617
root 0.101525 17.7765 1.22991 5.91954 17.2368 -1.96443
lowerback 12.0015 -0.254663 1.33585
upperback -1.46978 -0.0937915 0.557662
thorax -8.31931 -0.0926197 -0.143612
lowerneck -21.9703 -15.7762 -12.5621
upperneck 3.60808 -19.4576 15.4676
head 7.34418 -8.47827 4.17444
rclavicle -1.47411e-014 -1.98785e-015
rhumerus 52.8884 -46.2362 -59.6744
rradius 40.2532
rwrist -3.56735
rhand -63.8168 -33.0454
rfingers 7.12502
rthumb -35.7773 -59.4163
lclavicle -1.47411e-014 -1.98785e-015
lhumerus -44.0811 7.71773 64.7968
lradius 43.2391
lwrist 1.71151
lhand -15.8117 26.2215
lfingers 7.12502
lthumb 10.3818 55.9452
rfemur -15.2224 -13.3554 20.3349
rtibia 32.5979
rfoot -21.8403 -9.07978
rtoes 2.56552
lfemur -15.2856 -8.0954 -6.36829
ltibia 23.4296
lfoot -11.1896 1.77584
ltoes -25.1873
